<mxfile host="app.diagrams.net" modified="2022-02-09T02:26:42.959Z" agent="5.0 (X11)" etag="rZuLKF4-wGPBHthNJM5i" version="16.5.4" type="github">
  <diagram id="YTlDoMuW3tRSth707X6B" name="Page-1">
    <mxGraphModel dx="1355" dy="799" grid="1" gridSize="10" guides="1" tooltips="1" connect="1" arrows="1" fold="1" page="1" pageScale="1" pageWidth="1654" pageHeight="2336" math="0" shadow="0">
      <root>
        <mxCell id="0" />
        <mxCell id="1" parent="0" />
        <mxCell id="mOhh9dbjOjEwTMLcAdjl-1" value="" style="rounded=1;whiteSpace=wrap;html=1;dashed=1;" parent="1" vertex="1">
          <mxGeometry x="590" y="290" width="770" height="130" as="geometry" />
        </mxCell>
        <mxCell id="mOhh9dbjOjEwTMLcAdjl-9" style="edgeStyle=orthogonalEdgeStyle;rounded=0;orthogonalLoop=1;jettySize=auto;html=1;entryX=0.5;entryY=0;entryDx=0;entryDy=0;" parent="1" source="mOhh9dbjOjEwTMLcAdjl-3" target="mOhh9dbjOjEwTMLcAdjl-8" edge="1">
          <mxGeometry relative="1" as="geometry" />
        </mxCell>
        <mxCell id="mOhh9dbjOjEwTMLcAdjl-3" value="&amp;nbsp;感知" style="rounded=0;whiteSpace=wrap;html=1;" parent="1" vertex="1">
          <mxGeometry x="680" y="200" width="80" height="40" as="geometry" />
        </mxCell>
        <mxCell id="mOhh9dbjOjEwTMLcAdjl-14" style="edgeStyle=orthogonalEdgeStyle;rounded=0;orthogonalLoop=1;jettySize=auto;html=1;entryX=0.5;entryY=0;entryDx=0;entryDy=0;" parent="1" source="mOhh9dbjOjEwTMLcAdjl-6" target="mOhh9dbjOjEwTMLcAdjl-12" edge="1">
          <mxGeometry relative="1" as="geometry" />
        </mxCell>
        <mxCell id="mOhh9dbjOjEwTMLcAdjl-6" value="控制" style="rounded=0;whiteSpace=wrap;html=1;" parent="1" vertex="1">
          <mxGeometry x="1050" y="200" width="80" height="40" as="geometry" />
        </mxCell>
        <mxCell id="mOhh9dbjOjEwTMLcAdjl-13" style="edgeStyle=orthogonalEdgeStyle;rounded=0;orthogonalLoop=1;jettySize=auto;html=1;entryX=0.5;entryY=0;entryDx=0;entryDy=0;" parent="1" source="mOhh9dbjOjEwTMLcAdjl-7" target="mOhh9dbjOjEwTMLcAdjl-11" edge="1">
          <mxGeometry relative="1" as="geometry" />
        </mxCell>
        <mxCell id="mOhh9dbjOjEwTMLcAdjl-7" value="定位" style="rounded=0;whiteSpace=wrap;html=1;" parent="1" vertex="1">
          <mxGeometry x="860" y="200" width="80" height="40" as="geometry" />
        </mxCell>
        <mxCell id="yi_OoOEmuRbx4p4u0S4G-3" style="edgeStyle=orthogonalEdgeStyle;rounded=0;orthogonalLoop=1;jettySize=auto;html=1;" parent="1" source="mOhh9dbjOjEwTMLcAdjl-8" target="yi_OoOEmuRbx4p4u0S4G-4" edge="1">
          <mxGeometry relative="1" as="geometry">
            <mxPoint x="720" y="450" as="targetPoint" />
          </mxGeometry>
        </mxCell>
        <mxCell id="yi_OoOEmuRbx4p4u0S4G-14" style="edgeStyle=orthogonalEdgeStyle;rounded=0;orthogonalLoop=1;jettySize=auto;html=1;entryX=0;entryY=0.5;entryDx=0;entryDy=0;" parent="1" source="mOhh9dbjOjEwTMLcAdjl-8" target="yi_OoOEmuRbx4p4u0S4G-17" edge="1">
          <mxGeometry relative="1" as="geometry">
            <mxPoint x="550" y="820" as="targetPoint" />
            <Array as="points">
              <mxPoint x="470" y="350" />
              <mxPoint x="470" y="815" />
            </Array>
          </mxGeometry>
        </mxCell>
        <mxCell id="mOhh9dbjOjEwTMLcAdjl-8" value="获取障碍物信息&lt;br&gt;DP-&amp;gt;objects" style="rounded=0;whiteSpace=wrap;html=1;" parent="1" vertex="1">
          <mxGeometry x="675" y="320" width="90" height="60" as="geometry" />
        </mxCell>
        <mxCell id="mOhh9dbjOjEwTMLcAdjl-10" value="/Fusion_Objectlist " style="text;html=1;strokeColor=none;fillColor=none;align=center;verticalAlign=middle;whiteSpace=wrap;rounded=0;dashed=1;" parent="1" vertex="1">
          <mxGeometry x="740" y="250" width="60" height="30" as="geometry" />
        </mxCell>
        <mxCell id="mOhh9dbjOjEwTMLcAdjl-11" value="获取自车位置信息&lt;br&gt;DP-&amp;gt;loc" style="rounded=0;whiteSpace=wrap;html=1;" parent="1" vertex="1">
          <mxGeometry x="847.5" y="320" width="105" height="60" as="geometry" />
        </mxCell>
        <mxCell id="mOhh9dbjOjEwTMLcAdjl-12" value="获取自车的速度信息&lt;br&gt;DP-&amp;gt;loc" style="rounded=0;whiteSpace=wrap;html=1;" parent="1" vertex="1">
          <mxGeometry x="1045" y="320" width="90" height="60" as="geometry" />
        </mxCell>
        <mxCell id="mOhh9dbjOjEwTMLcAdjl-15" value="/loc/car_pose_1 " style="text;html=1;strokeColor=none;fillColor=none;align=center;verticalAlign=middle;whiteSpace=wrap;rounded=0;dashed=1;" parent="1" vertex="1">
          <mxGeometry x="920" y="250" width="60" height="30" as="geometry" />
        </mxCell>
        <mxCell id="mOhh9dbjOjEwTMLcAdjl-16" value="/canbus/vehstate " style="text;html=1;strokeColor=none;fillColor=none;align=center;verticalAlign=middle;whiteSpace=wrap;rounded=0;dashed=1;" parent="1" vertex="1">
          <mxGeometry x="1090" y="250" width="100" height="30" as="geometry" />
        </mxCell>
        <mxCell id="mOhh9dbjOjEwTMLcAdjl-18" value="DataPool" style="text;html=1;strokeColor=none;fillColor=none;align=center;verticalAlign=middle;whiteSpace=wrap;rounded=0;dashed=1;" parent="1" vertex="1">
          <mxGeometry x="945" y="390" width="60" height="30" as="geometry" />
        </mxCell>
        <mxCell id="mOhh9dbjOjEwTMLcAdjl-22" style="edgeStyle=orthogonalEdgeStyle;rounded=0;orthogonalLoop=1;jettySize=auto;html=1;entryX=0.5;entryY=0;entryDx=0;entryDy=0;" parent="1" source="mOhh9dbjOjEwTMLcAdjl-20" target="mOhh9dbjOjEwTMLcAdjl-21" edge="1">
          <mxGeometry relative="1" as="geometry" />
        </mxCell>
        <mxCell id="mOhh9dbjOjEwTMLcAdjl-20" value="规划" style="rounded=0;whiteSpace=wrap;html=1;" parent="1" vertex="1">
          <mxGeometry x="1230" y="200" width="80" height="40" as="geometry" />
        </mxCell>
        <mxCell id="mOhh9dbjOjEwTMLcAdjl-21" value="获取上一帧规划的轨迹&lt;br&gt;DP-&amp;gt;path" style="rounded=0;whiteSpace=wrap;html=1;" parent="1" vertex="1">
          <mxGeometry x="1225" y="320" width="90" height="60" as="geometry" />
        </mxCell>
        <mxCell id="mOhh9dbjOjEwTMLcAdjl-23" value="/plan/planning " style="text;html=1;strokeColor=none;fillColor=none;align=center;verticalAlign=middle;whiteSpace=wrap;rounded=0;dashed=1;" parent="1" vertex="1">
          <mxGeometry x="1260" y="250" width="100" height="30" as="geometry" />
        </mxCell>
        <mxCell id="yi_OoOEmuRbx4p4u0S4G-13" style="edgeStyle=orthogonalEdgeStyle;rounded=0;orthogonalLoop=1;jettySize=auto;html=1;" parent="1" source="yi_OoOEmuRbx4p4u0S4G-2" edge="1">
          <mxGeometry relative="1" as="geometry">
            <mxPoint x="720" y="770" as="targetPoint" />
          </mxGeometry>
        </mxCell>
        <mxCell id="yi_OoOEmuRbx4p4u0S4G-2" value="障碍物历史信息&lt;br&gt;DP-&amp;gt;perception_history" style="rounded=0;whiteSpace=wrap;html=1;" parent="1" vertex="1">
          <mxGeometry x="647.5" y="630" width="145" height="60" as="geometry" />
        </mxCell>
        <mxCell id="yi_OoOEmuRbx4p4u0S4G-5" style="edgeStyle=orthogonalEdgeStyle;rounded=0;orthogonalLoop=1;jettySize=auto;html=1;entryX=0.5;entryY=0;entryDx=0;entryDy=0;" parent="1" source="yi_OoOEmuRbx4p4u0S4G-4" target="yi_OoOEmuRbx4p4u0S4G-2" edge="1">
          <mxGeometry relative="1" as="geometry" />
        </mxCell>
        <mxCell id="yi_OoOEmuRbx4p4u0S4G-8" style="edgeStyle=orthogonalEdgeStyle;rounded=0;orthogonalLoop=1;jettySize=auto;html=1;" parent="1" source="yi_OoOEmuRbx4p4u0S4G-4" edge="1">
          <mxGeometry relative="1" as="geometry">
            <mxPoint x="892.5" y="500" as="targetPoint" />
          </mxGeometry>
        </mxCell>
        <mxCell id="yi_OoOEmuRbx4p4u0S4G-4" value="&lt;div&gt;obj.id是否存在DP历史&lt;/div&gt;&lt;div&gt;障碍物信息中&lt;br&gt;&lt;/div&gt;" style="rhombus;whiteSpace=wrap;html=1;" parent="1" vertex="1">
          <mxGeometry x="630" y="460" width="180" height="80" as="geometry" />
        </mxCell>
        <mxCell id="yi_OoOEmuRbx4p4u0S4G-6" value="是" style="text;html=1;strokeColor=none;fillColor=none;align=center;verticalAlign=middle;whiteSpace=wrap;rounded=0;" parent="1" vertex="1">
          <mxGeometry x="700" y="560" width="60" height="30" as="geometry" />
        </mxCell>
        <mxCell id="yi_OoOEmuRbx4p4u0S4G-10" value="否" style="text;html=1;strokeColor=none;fillColor=none;align=center;verticalAlign=middle;whiteSpace=wrap;rounded=0;" parent="1" vertex="1">
          <mxGeometry x="820" y="470" width="60" height="30" as="geometry" />
        </mxCell>
        <mxCell id="yi_OoOEmuRbx4p4u0S4G-12" style="edgeStyle=orthogonalEdgeStyle;rounded=0;orthogonalLoop=1;jettySize=auto;html=1;entryX=1;entryY=0.5;entryDx=0;entryDy=0;" parent="1" source="yi_OoOEmuRbx4p4u0S4G-11" target="yi_OoOEmuRbx4p4u0S4G-2" edge="1">
          <mxGeometry relative="1" as="geometry">
            <Array as="points">
              <mxPoint x="950" y="660" />
            </Array>
          </mxGeometry>
        </mxCell>
        <mxCell id="yi_OoOEmuRbx4p4u0S4G-11" value="创建一个新的obj.id" style="rounded=0;whiteSpace=wrap;html=1;" parent="1" vertex="1">
          <mxGeometry x="890" y="470" width="120" height="60" as="geometry" />
        </mxCell>
        <mxCell id="yi_OoOEmuRbx4p4u0S4G-15" value="DP-&amp;gt;perc_recv_time" style="text;html=1;strokeColor=none;fillColor=none;align=center;verticalAlign=middle;whiteSpace=wrap;rounded=0;" parent="1" vertex="1">
          <mxGeometry x="500" y="590" width="60" height="30" as="geometry" />
        </mxCell>
        <mxCell id="yi_OoOEmuRbx4p4u0S4G-18" style="edgeStyle=orthogonalEdgeStyle;rounded=0;orthogonalLoop=1;jettySize=auto;html=1;" parent="1" source="yi_OoOEmuRbx4p4u0S4G-17" edge="1">
          <mxGeometry relative="1" as="geometry">
            <mxPoint x="950" y="815" as="targetPoint" />
          </mxGeometry>
        </mxCell>
        <mxCell id="yi_OoOEmuRbx4p4u0S4G-23" style="edgeStyle=orthogonalEdgeStyle;rounded=0;orthogonalLoop=1;jettySize=auto;html=1;" parent="1" source="yi_OoOEmuRbx4p4u0S4G-17" edge="1">
          <mxGeometry relative="1" as="geometry">
            <mxPoint x="720" y="950" as="targetPoint" />
          </mxGeometry>
        </mxCell>
        <mxCell id="yi_OoOEmuRbx4p4u0S4G-17" value="&lt;div&gt;根据当前时间对历史障碍物&lt;/div&gt;&lt;div&gt;信息进行判断，历史障碍物&lt;/div&gt;&lt;div&gt;是否存在7s以上&lt;br&gt;&lt;/div&gt;" style="rhombus;whiteSpace=wrap;html=1;" parent="1" vertex="1">
          <mxGeometry x="605" y="770" width="230" height="90" as="geometry" />
        </mxCell>
        <mxCell id="yi_OoOEmuRbx4p4u0S4G-20" value="是" style="text;html=1;strokeColor=none;fillColor=none;align=center;verticalAlign=middle;whiteSpace=wrap;rounded=0;" parent="1" vertex="1">
          <mxGeometry x="860" y="780" width="60" height="30" as="geometry" />
        </mxCell>
        <mxCell id="yi_OoOEmuRbx4p4u0S4G-22" value="&lt;div&gt;删除7s之外的障碍物&lt;/div&gt;&lt;div&gt;历史帧数据&lt;br&gt;&lt;/div&gt;" style="rounded=0;whiteSpace=wrap;html=1;" parent="1" vertex="1">
          <mxGeometry x="953" y="790" width="120" height="60" as="geometry" />
        </mxCell>
        <mxCell id="yi_OoOEmuRbx4p4u0S4G-24" value="否" style="text;html=1;strokeColor=none;fillColor=none;align=center;verticalAlign=middle;whiteSpace=wrap;rounded=0;" parent="1" vertex="1">
          <mxGeometry x="705" y="890" width="60" height="30" as="geometry" />
        </mxCell>
        <mxCell id="yi_OoOEmuRbx4p4u0S4G-25" value="保留障碍物历史信息" style="rounded=0;whiteSpace=wrap;html=1;" parent="1" vertex="1">
          <mxGeometry x="660" y="950" width="120" height="60" as="geometry" />
        </mxCell>
      </root>
    </mxGraphModel>
  </diagram>
</mxfile>
